<mxfile host="app.diagrams.net" modified="2022-01-12T03:33:59.194Z" agent="5.0 (Macintosh; Intel Mac OS X 10_15_7) AppleWebKit/605.1.15 (KHTML, like Gecko) Version/13.1.3 Safari/605.1.15" etag="ZdzLu-92WYAxLS_3F0VK" version="15.9.4" type="github">
  <diagram id="C5RBs43oDa-KdzZeNtuy" name="Page-1">
    <mxGraphModel dx="946" dy="588" grid="1" gridSize="10" guides="1" tooltips="1" connect="1" arrows="1" fold="1" page="1" pageScale="1" pageWidth="827" pageHeight="1169" math="0" shadow="0">
      <root>
        <mxCell id="WIyWlLk6GJQsqaUBKTNV-0" />
        <mxCell id="WIyWlLk6GJQsqaUBKTNV-1" parent="WIyWlLk6GJQsqaUBKTNV-0" />
        <mxCell id="6wgWiJyUzcpTvuhnq5E7-31" style="edgeStyle=orthogonalEdgeStyle;rounded=0;orthogonalLoop=1;jettySize=auto;html=1;exitX=0.5;exitY=1;exitDx=0;exitDy=0;entryX=0.5;entryY=0;entryDx=0;entryDy=0;" edge="1" parent="WIyWlLk6GJQsqaUBKTNV-1" source="6wgWiJyUzcpTvuhnq5E7-32" target="6wgWiJyUzcpTvuhnq5E7-34">
          <mxGeometry relative="1" as="geometry" />
        </mxCell>
        <mxCell id="6wgWiJyUzcpTvuhnq5E7-32" value="开始" style="rounded=1;whiteSpace=wrap;html=1;" vertex="1" parent="WIyWlLk6GJQsqaUBKTNV-1">
          <mxGeometry x="200" y="80" width="70" height="30" as="geometry" />
        </mxCell>
        <mxCell id="6wgWiJyUzcpTvuhnq5E7-33" style="edgeStyle=orthogonalEdgeStyle;rounded=0;orthogonalLoop=1;jettySize=auto;html=1;exitX=0.5;exitY=1;exitDx=0;exitDy=0;entryX=0.5;entryY=0;entryDx=0;entryDy=0;" edge="1" parent="WIyWlLk6GJQsqaUBKTNV-1" source="6wgWiJyUzcpTvuhnq5E7-34" target="6wgWiJyUzcpTvuhnq5E7-36">
          <mxGeometry relative="1" as="geometry" />
        </mxCell>
        <mxCell id="6wgWiJyUzcpTvuhnq5E7-34" value="读取图像数据" style="shape=parallelogram;perimeter=parallelogramPerimeter;whiteSpace=wrap;html=1;fixedSize=1;" vertex="1" parent="WIyWlLk6GJQsqaUBKTNV-1">
          <mxGeometry x="175" y="130" width="115" height="40" as="geometry" />
        </mxCell>
        <mxCell id="6wgWiJyUzcpTvuhnq5E7-35" style="edgeStyle=orthogonalEdgeStyle;rounded=0;orthogonalLoop=1;jettySize=auto;html=1;exitX=0.5;exitY=1;exitDx=0;exitDy=0;entryX=0.5;entryY=0;entryDx=0;entryDy=0;" edge="1" parent="WIyWlLk6GJQsqaUBKTNV-1" source="6wgWiJyUzcpTvuhnq5E7-36" target="6wgWiJyUzcpTvuhnq5E7-38">
          <mxGeometry relative="1" as="geometry" />
        </mxCell>
        <mxCell id="6wgWiJyUzcpTvuhnq5E7-36" value="提取overhead信息" style="rounded=0;whiteSpace=wrap;html=1;" vertex="1" parent="WIyWlLk6GJQsqaUBKTNV-1">
          <mxGeometry x="178.75" y="190" width="107.5" height="40" as="geometry" />
        </mxCell>
        <mxCell id="6wgWiJyUzcpTvuhnq5E7-37" style="edgeStyle=orthogonalEdgeStyle;rounded=0;orthogonalLoop=1;jettySize=auto;html=1;exitX=0.5;exitY=1;exitDx=0;exitDy=0;entryX=0.5;entryY=0;entryDx=0;entryDy=0;" edge="1" parent="WIyWlLk6GJQsqaUBKTNV-1" source="6wgWiJyUzcpTvuhnq5E7-38">
          <mxGeometry relative="1" as="geometry">
            <mxPoint x="232.4999999999999" y="310" as="targetPoint" />
          </mxGeometry>
        </mxCell>
        <mxCell id="6wgWiJyUzcpTvuhnq5E7-38" value="解析overhead比特流" style="rounded=0;whiteSpace=wrap;html=1;" vertex="1" parent="WIyWlLk6GJQsqaUBKTNV-1">
          <mxGeometry x="173.75" y="250" width="121.25" height="40" as="geometry" />
        </mxCell>
        <mxCell id="6wgWiJyUzcpTvuhnq5E7-39" style="edgeStyle=orthogonalEdgeStyle;rounded=0;orthogonalLoop=1;jettySize=auto;html=1;exitX=0.5;exitY=1;exitDx=0;exitDy=0;entryX=0.5;entryY=0;entryDx=0;entryDy=0;" edge="1" parent="WIyWlLk6GJQsqaUBKTNV-1" source="6wgWiJyUzcpTvuhnq5E7-40" target="6wgWiJyUzcpTvuhnq5E7-44">
          <mxGeometry relative="1" as="geometry" />
        </mxCell>
        <mxCell id="6wgWiJyUzcpTvuhnq5E7-40" value="提取payload信息" style="rounded=0;whiteSpace=wrap;html=1;" vertex="1" parent="WIyWlLk6GJQsqaUBKTNV-1">
          <mxGeometry x="178.75" y="310" width="107.5" height="40" as="geometry" />
        </mxCell>
        <mxCell id="6wgWiJyUzcpTvuhnq5E7-41" value="结束" style="rounded=1;whiteSpace=wrap;html=1;" vertex="1" parent="WIyWlLk6GJQsqaUBKTNV-1">
          <mxGeometry x="197.18" y="832" width="70" height="30" as="geometry" />
        </mxCell>
        <mxCell id="6wgWiJyUzcpTvuhnq5E7-42" value="否" style="text;html=1;strokeColor=none;fillColor=none;align=center;verticalAlign=middle;whiteSpace=wrap;rounded=0;" vertex="1" parent="WIyWlLk6GJQsqaUBKTNV-1">
          <mxGeometry x="310" y="564" width="60" height="30" as="geometry" />
        </mxCell>
        <mxCell id="6wgWiJyUzcpTvuhnq5E7-43" style="edgeStyle=orthogonalEdgeStyle;rounded=0;orthogonalLoop=1;jettySize=auto;html=1;exitX=0.5;exitY=1;exitDx=0;exitDy=0;entryX=0.5;entryY=0;entryDx=0;entryDy=0;" edge="1" parent="WIyWlLk6GJQsqaUBKTNV-1" source="6wgWiJyUzcpTvuhnq5E7-44" target="6wgWiJyUzcpTvuhnq5E7-46">
          <mxGeometry relative="1" as="geometry" />
        </mxCell>
        <mxCell id="6wgWiJyUzcpTvuhnq5E7-44" value="解析payload比特流&lt;br&gt;恢复部分像素值" style="rounded=0;whiteSpace=wrap;html=1;" vertex="1" parent="WIyWlLk6GJQsqaUBKTNV-1">
          <mxGeometry x="171.88" y="370" width="121.25" height="40" as="geometry" />
        </mxCell>
        <mxCell id="6wgWiJyUzcpTvuhnq5E7-45" style="edgeStyle=orthogonalEdgeStyle;rounded=0;orthogonalLoop=1;jettySize=auto;html=1;exitX=0.5;exitY=1;exitDx=0;exitDy=0;entryX=0.5;entryY=0;entryDx=0;entryDy=0;" edge="1" parent="WIyWlLk6GJQsqaUBKTNV-1" source="6wgWiJyUzcpTvuhnq5E7-46" target="6wgWiJyUzcpTvuhnq5E7-48">
          <mxGeometry relative="1" as="geometry" />
        </mxCell>
        <mxCell id="6wgWiJyUzcpTvuhnq5E7-46" value="恢复最后一行的LSB信息" style="rounded=0;whiteSpace=wrap;html=1;" vertex="1" parent="WIyWlLk6GJQsqaUBKTNV-1">
          <mxGeometry x="163.88" y="436" width="138.12" height="40" as="geometry" />
        </mxCell>
        <mxCell id="6wgWiJyUzcpTvuhnq5E7-47" style="edgeStyle=orthogonalEdgeStyle;rounded=0;orthogonalLoop=1;jettySize=auto;html=1;exitX=0.5;exitY=1;exitDx=0;exitDy=0;entryX=0.5;entryY=0;entryDx=0;entryDy=0;" edge="1" parent="WIyWlLk6GJQsqaUBKTNV-1" source="6wgWiJyUzcpTvuhnq5E7-48" target="6wgWiJyUzcpTvuhnq5E7-51">
          <mxGeometry relative="1" as="geometry" />
        </mxCell>
        <mxCell id="6wgWiJyUzcpTvuhnq5E7-48" value="恢复Location Map&lt;br&gt;对应像素值" style="rounded=0;whiteSpace=wrap;html=1;" vertex="1" parent="WIyWlLk6GJQsqaUBKTNV-1">
          <mxGeometry x="163.31" y="500" width="138.12" height="40" as="geometry" />
        </mxCell>
        <mxCell id="6wgWiJyUzcpTvuhnq5E7-49" style="edgeStyle=orthogonalEdgeStyle;rounded=0;orthogonalLoop=1;jettySize=auto;html=1;exitX=0.5;exitY=1;exitDx=0;exitDy=0;entryX=0.5;entryY=0;entryDx=0;entryDy=0;" edge="1" parent="WIyWlLk6GJQsqaUBKTNV-1" source="6wgWiJyUzcpTvuhnq5E7-51" target="6wgWiJyUzcpTvuhnq5E7-54">
          <mxGeometry relative="1" as="geometry" />
        </mxCell>
        <mxCell id="6wgWiJyUzcpTvuhnq5E7-50" style="edgeStyle=orthogonalEdgeStyle;rounded=0;orthogonalLoop=1;jettySize=auto;html=1;exitX=1;exitY=0.5;exitDx=0;exitDy=0;entryX=0.5;entryY=0;entryDx=0;entryDy=0;" edge="1" parent="WIyWlLk6GJQsqaUBKTNV-1">
          <mxGeometry relative="1" as="geometry">
            <mxPoint x="370.5" y="748" as="targetPoint" />
            <mxPoint x="313" y="595" as="sourcePoint" />
          </mxGeometry>
        </mxCell>
        <mxCell id="6wgWiJyUzcpTvuhnq5E7-51" value="秘密信息恢复成功？" style="rhombus;whiteSpace=wrap;html=1;" vertex="1" parent="WIyWlLk6GJQsqaUBKTNV-1">
          <mxGeometry x="148.37" y="560" width="167.63" height="70" as="geometry" />
        </mxCell>
        <mxCell id="6wgWiJyUzcpTvuhnq5E7-52" style="edgeStyle=orthogonalEdgeStyle;rounded=0;orthogonalLoop=1;jettySize=auto;html=1;exitX=0.5;exitY=1;exitDx=0;exitDy=0;entryX=0.5;entryY=0;entryDx=0;entryDy=0;" edge="1" parent="WIyWlLk6GJQsqaUBKTNV-1" source="6wgWiJyUzcpTvuhnq5E7-54" target="6wgWiJyUzcpTvuhnq5E7-56">
          <mxGeometry relative="1" as="geometry" />
        </mxCell>
        <mxCell id="6wgWiJyUzcpTvuhnq5E7-53" style="edgeStyle=orthogonalEdgeStyle;rounded=0;orthogonalLoop=1;jettySize=auto;html=1;exitX=1;exitY=0.5;exitDx=0;exitDy=0;" edge="1" parent="WIyWlLk6GJQsqaUBKTNV-1" source="6wgWiJyUzcpTvuhnq5E7-54">
          <mxGeometry relative="1" as="geometry">
            <mxPoint x="369.9999999999999" y="685" as="targetPoint" />
            <Array as="points">
              <mxPoint x="360" y="685" />
              <mxPoint x="360" y="685" />
            </Array>
          </mxGeometry>
        </mxCell>
        <mxCell id="6wgWiJyUzcpTvuhnq5E7-54" value="原始图像恢复成功？" style="rhombus;whiteSpace=wrap;html=1;" vertex="1" parent="WIyWlLk6GJQsqaUBKTNV-1">
          <mxGeometry x="148.37" y="650" width="167.63" height="70" as="geometry" />
        </mxCell>
        <mxCell id="6wgWiJyUzcpTvuhnq5E7-55" style="edgeStyle=orthogonalEdgeStyle;rounded=0;orthogonalLoop=1;jettySize=auto;html=1;exitX=0.5;exitY=1;exitDx=0;exitDy=0;entryX=0.5;entryY=0;entryDx=0;entryDy=0;" edge="1" parent="WIyWlLk6GJQsqaUBKTNV-1" source="6wgWiJyUzcpTvuhnq5E7-56" target="6wgWiJyUzcpTvuhnq5E7-41">
          <mxGeometry relative="1" as="geometry" />
        </mxCell>
        <mxCell id="6wgWiJyUzcpTvuhnq5E7-56" value="信息提取成功" style="shape=parallelogram;perimeter=parallelogramPerimeter;whiteSpace=wrap;html=1;fixedSize=1;" vertex="1" parent="WIyWlLk6GJQsqaUBKTNV-1">
          <mxGeometry x="175" y="748" width="115" height="40" as="geometry" />
        </mxCell>
        <mxCell id="6wgWiJyUzcpTvuhnq5E7-57" style="edgeStyle=orthogonalEdgeStyle;rounded=0;orthogonalLoop=1;jettySize=auto;html=1;exitX=0.5;exitY=1;exitDx=0;exitDy=0;" edge="1" parent="WIyWlLk6GJQsqaUBKTNV-1">
          <mxGeometry relative="1" as="geometry">
            <mxPoint x="232" y="805" as="targetPoint" />
            <mxPoint x="369.5" y="783" as="sourcePoint" />
            <Array as="points">
              <mxPoint x="370" y="795" />
              <mxPoint x="370" y="795" />
            </Array>
          </mxGeometry>
        </mxCell>
        <mxCell id="6wgWiJyUzcpTvuhnq5E7-58" value="信息提取失败" style="shape=parallelogram;perimeter=parallelogramPerimeter;whiteSpace=wrap;html=1;fixedSize=1;" vertex="1" parent="WIyWlLk6GJQsqaUBKTNV-1">
          <mxGeometry x="310" y="748" width="115" height="40" as="geometry" />
        </mxCell>
        <mxCell id="6wgWiJyUzcpTvuhnq5E7-59" value="否" style="text;html=1;strokeColor=none;fillColor=none;align=center;verticalAlign=middle;whiteSpace=wrap;rounded=0;" vertex="1" parent="WIyWlLk6GJQsqaUBKTNV-1">
          <mxGeometry x="310" y="657" width="60" height="30" as="geometry" />
        </mxCell>
        <mxCell id="6wgWiJyUzcpTvuhnq5E7-60" value="是" style="text;html=1;strokeColor=none;fillColor=none;align=center;verticalAlign=middle;whiteSpace=wrap;rounded=0;" vertex="1" parent="WIyWlLk6GJQsqaUBKTNV-1">
          <mxGeometry x="190" y="620" width="60" height="30" as="geometry" />
        </mxCell>
        <mxCell id="6wgWiJyUzcpTvuhnq5E7-61" value="是" style="text;html=1;strokeColor=none;fillColor=none;align=center;verticalAlign=middle;whiteSpace=wrap;rounded=0;" vertex="1" parent="WIyWlLk6GJQsqaUBKTNV-1">
          <mxGeometry x="190" y="718" width="60" height="30" as="geometry" />
        </mxCell>
      </root>
    </mxGraphModel>
  </diagram>
</mxfile>
